<svg width="26" height="25" viewBox="0 0 26 25" fill="none" xmlns="http://www.w3.org/2000/svg">
<path d="M21.8986 5.72733C19.4564 3.46639 15.583 3.31951 12.9541 5.28514C10.3252 3.32029 6.45176 3.46717 4.00957 5.72733C2.72441 6.91639 2.0166 8.50311 2.0166 10.1937C2.0166 11.8844 2.72441 13.4711 4.00957 14.6609L12.4236 22.4484C12.5736 22.5867 12.7635 22.6562 12.9541 22.6562C13.1447 22.6562 13.3346 22.5867 13.4854 22.4484L21.8994 14.6601C23.1838 13.4711 23.8916 11.8851 23.8916 10.1937C23.8916 8.50233 23.1838 6.91639 21.8986 5.72733ZM20.8369 13.514L12.9541 20.8109L5.07129 13.5148C4.10957 12.6242 3.5791 11.4445 3.5791 10.1937C3.5791 8.94295 4.10957 7.76404 5.07129 6.87342C7.09785 4.99686 10.3963 4.99764 12.4229 6.87342C12.7236 7.14998 13.1846 7.14998 13.4846 6.87342C15.5111 4.99764 18.8096 4.99764 20.8361 6.87342C21.7979 7.76404 22.3283 8.94295 22.3283 10.1937C22.3283 11.4445 21.7986 12.6242 20.8369 13.514Z" fill="#656565"/>
</svg>
