<svg width="13" height="12" viewBox="0 0 13 12" fill="none" xmlns="http://www.w3.org/2000/svg">
<path d="M6.45408 0.166512C5.56113 0.165931 4.67996 0.370358 3.87848 0.764041C3.077 1.15772 2.37659 1.73015 1.83124 2.43722C1.28588 3.14429 0.910133 3.96713 0.732942 4.84232C0.555752 5.71751 0.58185 6.6217 0.809228 7.48522C1.0366 8.34874 1.45919 9.14853 2.04442 9.82296C2.62965 10.4974 3.36191 11.0285 4.18477 11.3753C5.00762 11.7221 5.89911 11.8753 6.79054 11.8232C7.68197 11.7712 8.54954 11.5151 9.32641 11.0748L11.5197 11.8058C11.5793 11.8249 11.6416 11.8341 11.7041 11.8332C11.7965 11.8331 11.8875 11.8111 11.9697 11.769C12.0519 11.7268 12.123 11.6658 12.1769 11.5908C12.2309 11.5158 12.2664 11.4291 12.2803 11.3378C12.2942 11.2465 12.2863 11.1532 12.2571 11.0655L11.5291 8.87218C12.0333 7.98521 12.2957 6.98138 12.2902 5.96113C12.2846 4.94088 12.0113 3.93997 11.4974 3.05854C10.9836 2.17711 10.2473 1.44606 9.36225 0.938533C8.47718 0.431002 7.47434 0.164784 6.45408 0.166512ZM10.335 8.98651L10.7818 10.3282L9.44016 9.88135C9.35832 9.85331 9.27124 9.84399 9.18532 9.85409C9.09941 9.86418 9.01685 9.89343 8.94374 9.93968C7.97083 10.5554 6.80503 10.7907 5.66946 10.6006C4.53388 10.4105 3.50829 9.80834 2.78896 8.90932C2.06963 8.0103 1.70709 6.87759 1.77072 5.72797C1.83434 4.57835 2.31967 3.49257 3.13382 2.67842C3.94797 1.86428 5.03375 1.37895 6.18337 1.31532C7.33299 1.25169 8.4657 1.61424 9.36472 2.33356C10.2637 3.05289 10.8659 4.07849 11.056 5.21406C11.2461 6.34964 11.0108 7.51544 10.3951 8.48835C10.3486 8.56168 10.3191 8.64445 10.3087 8.73064C10.2983 8.81682 10.3073 8.90424 10.335 8.98651Z" fill="black"/>
</svg>
