<svg width="27" height="26" viewBox="0 0 27 26" fill="none" xmlns="http://www.w3.org/2000/svg">
<path d="M24.7714 11.8853L21.5214 3.76025C21.406 3.47587 21.0932 3.25 20.7666 3.25H15.7421C15.4057 2.30669 14.512 1.625 13.4541 1.625C12.3962 1.625 11.5025 2.30669 11.1661 3.25H6.14161C5.81254 3.25 5.49811 3.47994 5.38679 3.76025L2.13679 11.8853C2.10673 11.9616 2.08236 12.2314 2.08154 12.2176C2.09942 14.4438 3.91211 16.25 6.14161 16.25C8.37111 16.25 10.1838 14.4438 10.2009 12.2184C10.2017 12.1388 10.157 11.9129 10.1456 11.8861L7.34167 4.875H11.1661C11.4115 5.56319 11.9534 6.10512 12.6416 6.3505V19.5H9.39161C8.04773 19.5 6.95411 20.5936 6.95411 21.9375V23.5625C6.95411 24.011 7.31729 24.375 7.76661 24.375H19.1416C19.5909 24.375 19.9541 24.011 19.9541 23.5625V21.9375C19.9541 20.5936 18.8605 19.5 17.5166 19.5H14.2666V6.3505C14.9548 6.10512 15.4967 5.56319 15.7421 4.875H19.5665L16.7626 11.8853C16.7325 11.9616 16.7082 12.2314 16.7074 12.2176C16.7244 14.4438 18.5371 16.25 20.7666 16.25C22.9961 16.25 24.8088 14.4438 24.8259 12.2184C24.8267 12.1388 24.782 11.9129 24.7714 11.8853ZM18.3291 21.9375V22.75H8.57911V21.9375C8.57911 21.4898 8.94311 21.125 9.39161 21.125H17.5166C17.9651 21.125 18.3291 21.4898 18.3291 21.9375ZM22.8165 11.375H18.7175L20.7666 6.24975L22.8165 11.375ZM6.14161 6.24975L8.19154 11.375H4.09167L6.14161 6.24975ZM6.14161 14.625C5.08211 14.625 4.17861 13.9458 3.84304 13H8.44017C8.10461 13.9458 7.20111 14.625 6.14161 14.625ZM13.4541 4.875C13.0056 4.875 12.6416 4.51019 12.6416 4.0625C12.6416 3.61481 13.0056 3.25 13.4541 3.25C13.9026 3.25 14.2666 3.61481 14.2666 4.0625C14.2666 4.51019 13.9026 4.875 13.4541 4.875ZM20.7666 14.625C19.7071 14.625 18.8036 13.9458 18.468 13H23.0652C22.7296 13.9458 21.8261 14.625 20.7666 14.625Z" fill="#656565"/>
</svg>
