<svg width="29" height="31" viewBox="0 0 29 31" fill="none" xmlns="http://www.w3.org/2000/svg">
<path d="M0.9375 2.90625H3.945L7.25906 17.4627C6.53632 17.5238 5.86458 17.8718 5.38475 18.4336C4.90493 18.9955 4.65431 19.7275 4.68548 20.4761C4.71664 21.2247 5.02717 21.9318 5.55192 22.449C6.07667 22.9662 6.77485 23.2532 7.5 23.25H23.4375C23.6861 23.25 23.9246 23.1479 24.1004 22.9663C24.2762 22.7846 24.375 22.5382 24.375 22.2813C24.375 22.0243 24.2762 21.7779 24.1004 21.5962C23.9246 21.4146 23.6861 21.3125 23.4375 21.3125H7.5C7.25136 21.3125 7.0129 21.2104 6.83709 21.0288C6.66127 20.8471 6.5625 20.6007 6.5625 20.3438C6.5625 20.0868 6.66127 19.8404 6.83709 19.6587C7.0129 19.4771 7.25136 19.375 7.5 19.375H23.3269C23.9612 19.3767 24.5773 19.156 25.0746 18.749C25.5718 18.342 25.9208 17.7727 26.0644 17.1343L28.0509 8.41553C28.1481 7.98888 28.1506 7.54505 28.0582 7.11727C27.9659 6.68949 27.7811 6.28883 27.5177 5.94528C27.2543 5.60173 26.9191 5.32419 26.5372 5.13343C26.1553 4.94268 25.7367 4.84365 25.3125 4.84375H6.31219L5.60063 1.71566C5.55221 1.50301 5.43567 1.31351 5.26991 1.17792C5.10415 1.04234 4.89891 0.968625 4.6875 0.96875H0.9375C0.68886 0.96875 0.450403 1.07081 0.274587 1.25249C0.098772 1.43417 0 1.68057 0 1.9375C0 2.19443 0.098772 2.44083 0.274587 2.62251C0.450403 2.80419 0.68886 2.90625 0.9375 2.90625ZM25.3125 6.78125C25.453 6.78402 25.5912 6.81888 25.7171 6.88332C25.843 6.94776 25.9536 7.0402 26.0408 7.15399C26.1281 7.26779 26.1899 7.40013 26.2219 7.54153C26.2538 7.68293 26.2551 7.82988 26.2256 7.97184L24.2381 16.6906C24.1907 16.9034 24.0747 17.0933 23.9091 17.229C23.7435 17.3647 23.5382 17.4382 23.3269 17.4375H9.18L6.75 6.78125H25.3125Z" fill="#656565"/>
<path d="M17.8125 27.125C17.8125 27.6998 17.9774 28.2617 18.2865 28.7396C18.5955 29.2175 19.0348 29.59 19.5487 29.81C20.0626 30.03 20.6281 30.0875 21.1737 29.9754C21.7193 29.8633 22.2204 29.5865 22.6137 29.18C23.0071 28.7736 23.2749 28.2557 23.3835 27.692C23.492 27.1282 23.4363 26.5439 23.2234 26.0128C23.0105 25.4818 22.65 25.0279 22.1875 24.7085C21.725 24.3892 21.1813 24.2188 20.625 24.2188C19.8791 24.2188 19.1637 24.5249 18.6363 25.07C18.1088 25.615 17.8125 26.3542 17.8125 27.125ZM21.5625 27.125C21.5625 27.3166 21.5075 27.5039 21.4045 27.6632C21.3015 27.8225 21.1551 27.9467 20.9838 28.02C20.8125 28.0933 20.624 28.1125 20.4421 28.0751C20.2602 28.0378 20.0932 27.9455 19.9621 27.81C19.831 27.6745 19.7417 27.5019 19.7055 27.314C19.6693 27.1261 19.6879 26.9313 19.7589 26.7543C19.8298 26.5773 19.95 26.426 20.1041 26.3195C20.2583 26.2131 20.4396 26.1562 20.625 26.1562C20.8736 26.1562 21.1121 26.2583 21.2879 26.44C21.4637 26.6217 21.5625 26.8681 21.5625 27.125Z" fill="#656565"/>
<path d="M7.5 27.125C7.5 27.6998 7.66495 28.2617 7.97399 28.7396C8.28303 29.2175 8.72228 29.59 9.2362 29.81C9.75012 30.03 10.3156 30.0875 10.8612 29.9754C11.4068 29.8633 11.9079 29.5865 12.3012 29.18C12.6946 28.7736 12.9624 28.2557 13.071 27.692C13.1795 27.1282 13.1238 26.5439 12.9109 26.0128C12.698 25.4818 12.3375 25.0279 11.875 24.7085C11.4125 24.3892 10.8688 24.2188 10.3125 24.2188C9.56658 24.2188 8.85121 24.5249 8.32376 25.07C7.79632 25.615 7.5 26.3542 7.5 27.125ZM11.25 27.125C11.25 27.3166 11.195 27.5039 11.092 27.6632C10.989 27.8225 10.8426 27.9467 10.6713 28.02C10.5 28.0933 10.3115 28.1125 10.1296 28.0751C9.94774 28.0378 9.7807 27.9455 9.64959 27.81C9.51847 27.6745 9.42919 27.5019 9.39301 27.314C9.35684 27.1261 9.3754 26.9313 9.44636 26.7543C9.51732 26.5773 9.63748 26.426 9.79165 26.3195C9.94582 26.2131 10.1271 26.1562 10.3125 26.1562C10.5611 26.1562 10.7996 26.2583 10.9754 26.44C11.1512 26.6217 11.25 26.8681 11.25 27.125Z" fill="#656565"/>
</svg>
