<svg width="24" height="24" viewBox="0 0 24 24" fill="none" xmlns="http://www.w3.org/2000/svg">
<path d="M9.8335 23.917H1.16683C0.879512 23.917 0.603961 23.8029 0.400797 23.5997C0.197633 23.3965 0.0834961 23.121 0.0834961 22.8337V14.167C0.0834961 13.8797 0.197633 13.6041 0.400797 13.401C0.603961 13.1978 0.879512 13.0837 1.16683 13.0837H9.8335C10.1208 13.0837 10.3964 13.1978 10.5995 13.401C10.8027 13.6041 10.9168 13.8797 10.9168 14.167V22.8337C10.9168 23.121 10.8027 23.3965 10.5995 23.5997C10.3964 23.8029 10.1208 23.917 9.8335 23.917ZM8.75016 15.2503H2.25016V21.7503H8.75016V15.2503Z" fill="white"/>
<path d="M22.8335 23.917H14.1668C13.8795 23.917 13.604 23.8029 13.4008 23.5997C13.1976 23.3965 13.0835 23.121 13.0835 22.8337V14.167C13.0835 13.8797 13.1976 13.6041 13.4008 13.401C13.604 13.1978 13.8795 13.0837 14.1668 13.0837H22.8335C23.1208 13.0837 23.3964 13.1978 23.5995 13.401C23.8027 13.6041 23.9168 13.8797 23.9168 14.167V22.8337C23.9168 23.121 23.8027 23.3965 23.5995 23.5997C23.3964 23.8029 23.1208 23.917 22.8335 23.917ZM21.7502 15.2503H15.2502V21.7503H21.7502V15.2503Z" fill="white"/>
<path d="M9.8335 10.917H1.16683C0.879512 10.917 0.603961 10.8029 0.400797 10.5997C0.197633 10.3965 0.0834961 10.121 0.0834961 9.83366V1.16699C0.0834961 0.879675 0.197633 0.604124 0.400797 0.40096C0.603961 0.197796 0.879512 0.0836601 1.16683 0.0836601H9.8335C10.1208 0.0836601 10.3964 0.197796 10.5995 0.40096C10.8027 0.604124 10.9168 0.879675 10.9168 1.16699V9.83366C10.9168 10.121 10.8027 10.3965 10.5995 10.5997C10.3964 10.8029 10.1208 10.917 9.8335 10.917ZM8.75016 2.25033H2.25016V8.75033H8.75016V2.25033Z" fill="white"/>
<path d="M22.8335 10.917H14.1668C13.8795 10.917 13.604 10.8029 13.4008 10.5997C13.1976 10.3965 13.0835 10.121 13.0835 9.83366V1.16699C13.0835 0.879675 13.1976 0.604124 13.4008 0.40096C13.604 0.197796 13.8795 0.0836601 14.1668 0.0836601H22.8335C23.1208 0.0836601 23.3964 0.197796 23.5995 0.40096C23.8027 0.604124 23.9168 0.879675 23.9168 1.16699V9.83366C23.9168 10.121 23.8027 10.3965 23.5995 10.5997C23.3964 10.8029 23.1208 10.917 22.8335 10.917ZM21.7502 2.25033H15.2502V8.75033H21.7502V2.25033Z" fill="white"/>
</svg>
