<svg width="22" height="16" viewBox="0 0 22 16" fill="none" xmlns="http://www.w3.org/2000/svg">
<path d="M2.09674 13.8716H3.52692C4.1718 16.1276 7.46186 16.1358 8.10518 13.8715C8.10519 13.8716 14.4286 13.8716 14.4286 13.8716C15.0672 16.1318 18.366 16.1301 19.0068 13.8715C19.0068 13.8716 19.9033 13.8716 19.9033 13.8716C20.68 13.8716 21.3125 13.2398 21.3125 12.463V7.247C21.3125 6.82537 21.1258 6.42925 20.8002 6.16003L19.0761 4.73803C18.8243 4.5299 18.5061 4.41577 18.1798 4.41577H15.1364V1.84234C15.1364 1.06555 14.504 0.433105 13.7272 0.433105H2.09674C1.31994 0.433099 0.6875 1.06554 0.6875 1.84234V12.463C0.6875 13.2398 1.31994 13.8716 2.09674 13.8716ZM5.81958 14.214C4.46645 14.1899 4.46597 12.1789 5.81962 12.1548C7.16364 12.1789 7.16277 14.1903 5.81958 14.214ZM16.7142 14.214C15.3708 14.1901 15.3703 12.1787 16.7142 12.1548C18.068 12.1791 18.0671 14.1901 16.7142 14.214ZM18.2013 5.79882L19.9247 7.22015C19.9328 7.22686 19.9375 7.23694 19.9375 7.247L19.9033 12.4966H19.019C18.9834 12.3975 18.9432 12.3001 18.9044 12.2023C18.2994 10.7567 16.2918 10.3221 15.1364 11.3754C15.1364 11.3754 15.1364 5.79211 15.1364 5.79211L18.2013 5.79882ZM9.51489 1.81011V4.39697L8.29901 3.57183C8.06569 3.41338 7.76024 3.41338 7.52691 3.57183L6.31104 4.39697V1.81011H9.51489ZM2.09674 1.8081H4.93603V5.69408C4.93603 5.94854 5.07702 6.18218 5.30194 6.30169C5.52551 6.4212 5.79877 6.40642 6.00958 6.26275L7.91296 4.97167C8.28207 5.17321 9.92072 6.46664 10.2024 6.38162C10.5701 6.38949 10.8976 6.06332 10.8899 5.69408C10.8899 5.69408 10.8899 1.80809 10.8899 1.80809H13.7272C13.7466 1.80809 13.7614 1.82286 13.7614 1.84233C13.7614 3.94981 13.7614 10.2944 13.7614 12.4966H8.11706C8.08107 12.3971 8.04139 12.299 8.00234 12.2009C7.43689 10.8506 5.60759 10.349 4.43366 11.2258C3.99431 11.5298 3.68501 11.9834 3.5174 12.4872C3.51739 12.4872 2.0625 12.463 2.0625 12.463L2.09674 1.8081Z" fill="#F47928" fill-opacity="0.9"/>
</svg>
