<svg width="31" height="27" viewBox="0 0 31 27" fill="none" xmlns="http://www.w3.org/2000/svg">
<path d="M28.0223 3.01826C24.6033 -0.147057 19.1805 -0.352681 15.5 2.39919C11.8195 -0.351588 6.39672 -0.145963 2.97766 3.01826C1.17844 4.68294 0.1875 6.90435 0.1875 9.27123C0.1875 11.6381 1.17844 13.8595 2.97766 15.5253L14.7573 26.4278C14.9673 26.6214 15.2331 26.7187 15.5 26.7187C15.7669 26.7187 16.0327 26.6214 16.2437 26.4278L28.0234 15.5242C29.8216 13.8595 30.8125 11.6392 30.8125 9.27123C30.8125 6.90326 29.8216 4.68294 28.0223 3.01826ZM26.5359 13.9197L15.5 24.1353L4.46406 13.9208C3.11766 12.6739 2.375 11.0223 2.375 9.27123C2.375 7.52013 3.11766 5.86966 4.46406 4.62279C7.30125 1.9956 11.9191 1.99669 14.7562 4.62279C15.1773 5.00998 15.8227 5.00998 16.2427 4.62279C19.0798 1.99669 23.6977 1.99669 26.5348 4.62279C27.8813 5.86966 28.6239 7.52013 28.6239 9.27123C28.6239 11.0223 27.8823 12.6739 26.5359 13.9197Z" fill="#656565"/>
</svg>
