<svg width="26" height="26" viewBox="0 0 26 26" fill="none" xmlns="http://www.w3.org/2000/svg">
<g clip-path="url(#clip0)">
<path d="M24.6949 14.7241V13.1534C24.6949 6.70481 19.4486 1.4585 13 1.4585C6.55139 1.4585 1.30508 6.70481 1.30508 13.1534V14.7241C0.493543 15.6404 0 16.8445 0 18.1618C0 21.024 2.32863 23.3526 5.19086 23.3526C5.31659 23.3526 5.44228 23.348 5.5671 23.3391C5.9023 24.0487 6.62462 24.541 7.46007 24.541C8.61387 24.541 9.55256 23.6023 9.55256 22.4485V13.875C9.55256 12.7212 8.61387 11.7825 7.46007 11.7825C6.62462 11.7825 5.9023 12.2749 5.5671 12.9845C5.44228 12.9755 5.31659 12.9709 5.19086 12.9709C4.90577 12.9709 4.62612 12.9944 4.35343 13.0388C4.41507 8.32295 8.26978 4.50537 13 4.50537C17.7302 4.50537 21.5849 8.32295 21.6466 13.0388C21.3739 12.9944 21.0942 12.9709 20.8091 12.9709C20.6835 12.9709 20.5578 12.9755 20.433 12.9845C20.0977 12.2749 19.3754 11.7825 18.54 11.7825C17.3862 11.7825 16.4475 12.7212 16.4475 13.875V22.4485C16.4475 23.6023 17.3862 24.541 18.54 24.541C19.3754 24.541 20.0978 24.0487 20.433 23.3391C20.5578 23.3481 20.6834 23.3527 20.8091 23.3527C23.6714 23.3527 26 21.0241 26 18.1618C26 16.8445 25.5065 15.6404 24.6949 14.7241ZM6.3832 13.875C6.3832 13.2812 6.86629 12.7982 7.46007 12.7982C8.05386 12.7982 8.53694 13.2812 8.53694 13.875V22.4485C8.53694 23.0423 8.05386 23.5254 7.46007 23.5254C6.86629 23.5254 6.3832 23.0423 6.3832 22.4485V13.875ZM5.36758 13.9905V22.333C5.30877 22.3354 5.24987 22.337 5.19086 22.337C2.88864 22.337 1.01562 20.464 1.01562 18.1618C1.01562 15.8596 2.88864 13.9865 5.19086 13.9865C5.24987 13.9865 5.30877 13.9881 5.36758 13.9905ZM13 3.48975C7.67142 3.48975 3.33633 7.82484 3.33633 13.1534V13.3137C2.97695 13.4516 2.63671 13.6283 2.3207 13.8388V13.1534C2.3207 7.26482 7.11141 2.47412 13 2.47412C18.8886 2.47412 23.6793 7.26482 23.6793 13.1534V13.8388C23.3633 13.6283 23.0231 13.4516 22.6637 13.3137V13.1534C22.6637 7.82484 18.3286 3.48975 13 3.48975ZM20.8091 22.337C20.7501 22.337 20.6912 22.3354 20.6325 22.333V19.3048C20.6325 19.0243 20.4051 18.7969 20.1247 18.7969C19.8442 18.7969 19.6168 19.0243 19.6168 19.3048V22.4485C19.6168 23.0423 19.1338 23.5254 18.54 23.5254C17.9462 23.5254 17.4631 23.0423 17.4631 22.4485V13.875C17.4631 13.2812 17.9462 12.7982 18.54 12.7982C19.1338 12.7982 19.6168 13.2812 19.6168 13.875V14.7344C19.6168 15.0149 19.8442 15.2423 20.1247 15.2423C20.4051 15.2423 20.6325 15.0149 20.6325 14.7344V13.9905C20.6912 13.9881 20.7501 13.9865 20.8091 13.9865C23.1114 13.9865 24.9844 15.8596 24.9844 18.1618C24.9844 20.464 23.1114 22.337 20.8091 22.337Z" fill="#DD7935"/>
<path d="M20.4797 17.379C20.6779 17.1808 20.6779 16.8593 20.4797 16.661C20.2814 16.4627 19.9599 16.4627 19.7616 16.661C19.5633 16.8593 19.5633 17.1808 19.7616 17.379C19.9599 17.5773 20.2814 17.5773 20.4797 17.379Z" fill="#DD7935"/>
</g>
<defs>
<clipPath id="clip0">
<rect width="26" height="26" fill="white"/>
</clipPath>
</defs>
</svg>
