<svg width="24" height="24" viewBox="0 0 24 24" fill="none" xmlns="http://www.w3.org/2000/svg">
<path d="M20.6007 8.58418V3.52909H16.4202V5.36818L12 1.96777L0 11.1992L2.51409 14.4672L3.74508 13.5203V22.032H10.8475V15.7955H13.4327V22.032H20.2551V13.5203L21.486 14.4672L24 11.1992L20.6007 8.58418ZM18.8471 20.6241H14.8406V14.3876H9.43959V20.6241H5.15292V12.4372L12 7.1701L18.8471 12.4372V20.6241H18.8471ZM21.2285 12.4929L12 5.39349L2.77148 12.4929L1.97433 11.4567L12 3.74405L17.8281 8.22755V4.93698H19.1928V9.27741L22.0256 11.4567L21.2285 12.4929Z" fill="#DD7935"/>
</svg>
