<svg width="17" height="17" viewBox="0 0 17 17" fill="none" xmlns="http://www.w3.org/2000/svg">
<path d="M15.6383 5.38676C14.434 2.63661 11.6895 0.708496 8.50016 0.708496C5.3108 0.708496 2.56631 2.63661 1.36201 5.38676C1.36089 5.38931 1.35955 5.39152 1.35846 5.39411C0.942518 6.34667 0.708496 7.39607 0.708496 8.50016C0.708496 9.60425 0.942518 10.6537 1.35846 11.6062C1.35955 11.6088 1.36089 11.611 1.36201 11.6136C2.56631 14.3637 5.3108 16.2918 8.50016 16.2918C11.6895 16.2918 14.434 14.3637 15.6383 11.6136C15.6394 11.611 15.6408 11.6088 15.6419 11.6062C16.0578 10.6537 16.2918 9.60425 16.2918 8.50016C16.2918 7.39607 16.0578 6.34667 15.6419 5.39411C15.6408 5.39152 15.6394 5.38931 15.6383 5.38676ZM8.50016 14.8752C7.93951 14.8752 7.21644 13.8304 6.77464 12.0418H10.2257C9.78389 13.8304 9.06081 14.8752 8.50016 14.8752ZM6.5104 10.6252C6.42536 9.9761 6.37516 9.26669 6.37516 8.50016C6.37516 7.73364 6.42536 7.02422 6.5104 6.37516H10.4899C10.575 7.02422 10.6252 7.73364 10.6252 8.50016C10.6252 9.26669 10.575 9.9761 10.4899 10.6252H6.5104ZM2.12516 8.50016C2.12516 7.75426 2.26066 7.041 2.49714 6.37516H5.08867C5.00233 7.07312 4.9585 7.79079 4.9585 8.50016C4.9585 9.20953 5.00233 9.9272 5.08867 10.6252H2.49714C2.26066 9.95933 2.12516 9.24607 2.12516 8.50016ZM8.50016 2.12516C9.06081 2.12516 9.78389 3.16989 10.2257 4.9585H6.77464C7.21644 3.16989 7.93951 2.12516 8.50016 2.12516ZM11.9117 6.37516H14.5032C14.7397 7.041 14.8752 7.75426 14.8752 8.50016C14.8752 9.24607 14.7397 9.95933 14.5032 10.6252H11.9117C11.998 9.9272 12.0418 9.20953 12.0418 8.50016C12.0418 7.79079 11.998 7.07312 11.9117 6.37516ZM13.7971 4.9585H11.669C11.4729 4.06988 11.1997 3.25567 10.8537 2.58097C12.058 3.06159 13.0839 3.8953 13.7971 4.9585ZM6.14659 2.58097C5.80064 3.25567 5.52744 4.06988 5.3313 4.9585H3.20318C3.91645 3.8953 4.94233 3.06159 6.14659 2.58097ZM3.20318 12.0418H5.3313C5.52744 12.9304 5.80064 13.7447 6.14659 14.4194C4.94233 13.9387 3.91645 13.105 3.20318 12.0418ZM10.8537 14.4194C11.1997 13.7447 11.4729 12.9304 11.669 12.0418H13.7971C13.0839 13.105 12.058 13.9387 10.8537 14.4194Z" fill="#F47928" fill-opacity="0.9"/>
</svg>
