<svg width="26" height="26" viewBox="0 0 26 26" fill="none" xmlns="http://www.w3.org/2000/svg">
<path d="M21.4727 6.72412H4.52733C4.21833 6.72412 3.96777 6.97463 3.96777 7.28368V15.7349C3.96777 16.044 4.21833 16.2945 4.52733 16.2945C4.83634 16.2945 5.08689 16.044 5.08689 15.7349V7.84319H20.9131V15.7349C20.9131 16.0439 21.1637 16.2944 21.4727 16.2944C21.7817 16.2944 22.0322 16.0439 22.0322 15.7349V7.28363C22.0322 6.97463 21.7816 6.72412 21.4727 6.72412Z" fill="#DD7935"/>
<path d="M25.4965 17.733H24.4658V5.98195C24.4658 5.0493 23.7071 4.29053 22.7744 4.29053H3.22563C2.29293 4.29053 1.53421 5.0493 1.53421 5.98195V17.733H0.503599C0.225469 17.733 0 17.9584 0 18.2366V19.2252C0 20.5951 1.1145 21.7096 2.48443 21.7096H23.5156C24.8855 21.7096 26 20.5951 26 19.2252V18.2366C26.0001 17.9584 25.7746 17.733 25.4965 17.733ZM2.65327 5.98195C2.65327 5.6664 2.91008 5.4096 3.22563 5.4096H22.7743C23.09 5.4096 23.3467 5.66635 23.3467 5.98195V17.733H15.7701C15.7344 17.7318 15.6976 17.7349 15.661 17.7419C15.424 17.7875 15.2527 17.995 15.2527 18.2364C15.2527 18.6615 14.9069 19.0073 14.4819 19.0073H11.5182C11.0931 19.0073 10.7474 18.6614 10.7474 18.2364C10.7474 17.9544 10.5138 17.7269 10.2321 17.7329H2.65327V5.98195ZM24.9929 19.2252C24.9929 20.0398 24.3301 20.7024 23.5156 20.7024H2.48443C1.66989 20.7024 1.0072 20.0398 1.0072 19.2252V18.7402H9.81284C10.0305 19.4761 10.7127 20.0145 11.5182 20.0145H14.4818C15.2873 20.0145 15.9695 19.476 16.1872 18.7402H24.9929V19.2252H24.9929Z" fill="#DD7935"/>
<path d="M13.8295 9.97638C13.6109 9.75787 13.2567 9.75787 13.0381 9.97638L9.51911 13.4955C9.3006 13.714 9.3006 14.0683 9.51911 14.2869C9.62839 14.3961 9.77159 14.4507 9.91475 14.4507C10.058 14.4507 10.2011 14.396 10.3104 14.2869L13.8295 10.7678C14.048 10.5492 14.048 10.1949 13.8295 9.97638Z" fill="#DD7935"/>
<path d="M15.9152 12.0159C15.6966 11.7974 15.3424 11.7974 15.1239 12.0159L13.722 13.4178C13.5035 13.6363 13.5035 13.9906 13.722 14.2092C13.8313 14.3185 13.9745 14.3731 14.1176 14.3731C14.2609 14.3731 14.404 14.3185 14.5133 14.2092L15.9151 12.8073C16.1337 12.5888 16.1337 12.2345 15.9152 12.0159Z" fill="#DD7935"/>
</svg>
