<svg width="38" height="38" viewBox="0 0 38 38" fill="none" xmlns="http://www.w3.org/2000/svg">
<path d="M23.5 27C25.9813 27 28 24.757 28 22C28 19.243 25.9813 17 23.5 17C21.0187 17 19 19.243 19 22C19 24.757 21.0187 27 23.5 27ZM19.9311 21.5C20.0134 20.771 20.2726 20.104 20.6596 19.551L21.2725 20.2325L21.9088 19.5255L21.2959 18.8445C21.7936 18.4145 22.3939 18.1265 23.05 18.035V19H23.95V18.0345C24.6061 18.126 25.2064 18.414 25.7041 18.844L25.0912 19.525L25.7275 20.232L26.3404 19.5505C26.7274 20.1035 26.9866 20.7705 27.0689 21.4995H26.2V22.4995H27.0689C26.9866 23.2285 26.7274 23.8955 26.3404 24.4485L25.7275 23.767L25.0912 24.474L25.7041 25.155C25.2064 25.585 24.6061 25.873 23.95 25.9645V25H23.05V25.9655C22.3939 25.874 21.7936 25.586 21.2959 25.156L21.9088 24.475L21.2725 23.768L20.6596 24.4495C20.2726 23.8965 20.0134 23.2295 19.9311 22.5005H20.8V21.5005H19.9311V21.5Z" fill="#DD7935"/>
<path d="M28.1475 11H16.2718C15.5535 11 14.8532 11.2057 14.2456 11.5933L3.77661 18.2872C2.66415 18.9983 2 20.2207 2 21.555V24.5172C2 24.7842 2.21298 25 2.47541 25H18.2058C18.3679 25 18.5186 24.916 18.6061 24.7779C18.6935 24.6394 18.7054 24.4656 18.6379 24.3159C18.2814 23.5266 18.1245 22.6808 18.1725 21.8017C18.3194 19.1026 20.5191 16.9041 23.1809 16.7974C24.6205 16.7414 25.982 17.2643 27.017 18.2747C28.0525 19.2851 28.623 20.645 28.623 22.1034C28.623 22.3704 28.8359 22.5862 29.0984 22.5862H30.5246C30.787 22.5862 31 22.3704 31 22.1034V13.8966C31 12.2991 29.7207 11 28.1475 11ZM14.7519 12.4111C15.2078 12.1195 15.7332 11.9655 16.2718 11.9655H21.2018L17.2126 14.3962V14.3793H11.6736L14.7519 12.4111ZM4.28339 19.1041L10.1633 15.3448H15.6552L6.98705 20.6262C6.437 20.9612 5.80803 21.1379 5.16766 21.1379H2.98267C3.10057 20.3037 3.56695 19.5627 4.28339 19.1041ZM30.0492 21.6207H29.5557C29.4421 20.0817 28.7841 18.6604 27.6755 17.5781C26.4522 16.3842 24.8406 15.7677 23.1429 15.8329C20.2001 15.9512 17.7356 18.2322 17.2873 21.1379H9.13115V22.1034H17.2193C17.2202 22.7605 17.3153 23.4141 17.5117 24.0345H2.95082V22.1034H5.16766C5.98013 22.1034 6.77882 21.879 7.47625 21.4541L23.0497 11.9655H28.1475C29.1963 11.9655 30.0492 12.8316 30.0492 13.8966V21.6207Z" fill="#DD7935"/>
<path d="M23.5 24C24.3273 24 25 23.103 25 22C25 20.897 24.3273 20 23.5 20C22.6727 20 22 20.897 22 22C22 23.103 22.6727 24 23.5 24ZM23.5 21C23.9136 21 24.25 21.4485 24.25 22C24.25 22.5515 23.9136 23 23.5 23C23.0864 23 22.75 22.5515 22.75 22C22.75 21.4485 23.0864 21 23.5 21Z" fill="#DD7935"/>
<path d="M4.50942 8.18981C3.72753 9.30292 3.86059 10.9566 4.80625 11.8775L6.864 13.88C6.94721 13.9607 7.04734 14 7.14747 14C7.27564 14 7.40246 13.935 7.49058 13.8104C8.27247 12.6973 8.13941 11.0436 7.19375 10.1227L5.136 8.12014C4.94643 7.93576 4.66607 7.96719 4.50942 8.18981ZM7.0291 12.6821L5.3732 11.0703C4.9264 10.635 4.78177 9.92574 4.97046 9.31811L6.62636 10.9299C7.0736 11.3652 7.21778 12.0744 7.0291 12.6821Z" fill="#DD7935"/>
<path d="M11.58 5.11976L9.00781 7.12245C7.82574 8.04338 7.65941 9.6977 8.63678 10.8104C8.74692 10.9356 8.90546 11 9.06566 11C9.19082 11 9.31598 10.9607 9.42 10.88L11.9922 8.87735C13.1743 7.95694 13.3406 6.30262 12.3632 5.18944C12.1674 4.96732 11.8164 4.93589 11.58 5.11976ZM11.2835 8.0701L9.21307 9.68251C9.12852 9.46511 9.0957 9.23043 9.11962 8.99312C9.1619 8.57509 9.37439 8.19739 9.71761 7.93023L11.7875 6.31834C12.0228 6.926 11.8426 7.63478 11.2835 8.0701Z" fill="#DD7935"/>
</svg>
