<svg width="24" height="24" viewBox="0 0 24 24" fill="none" xmlns="http://www.w3.org/2000/svg">
<g clip-path="url(#clip0)">
<path d="M23.5201 7.01357L16.9758 0.464881C16.3589 -0.15448 15.2771 -0.153968 14.6613 0.464369L12.4801 2.64706C12.1706 2.95567 12.0002 3.36716 12.0002 3.80529C12.0002 4.24343 12.1706 4.65492 12.4796 4.96301L12.545 5.02842C11.2286 5.93767 8.32727 7.62598 4.90934 7.62598C4.66593 7.62598 4.45177 7.78746 4.38468 8.02203L0.0209354 23.3048C-0.0334222 23.495 0.0198615 23.7002 0.159974 23.8405C0.263832 23.9444 0.402871 24.0004 0.545643 24.0004C0.595705 24.0004 0.64633 23.9935 0.695318 23.9795L15.968 19.613C16.2023 19.5459 16.3638 19.3316 16.3638 19.088C16.3638 15.6678 18.0509 12.7645 18.9596 11.4473L19.0244 11.5122C19.3328 11.8219 19.7441 11.9925 20.1819 11.9925C20.6197 11.9925 21.031 11.8219 21.3388 11.5128L23.5201 9.33009C23.8296 9.02148 24 8.60999 24 8.17185C24 7.73367 23.8296 7.32218 23.5201 7.01357ZM15.2802 18.6779L2.41963 22.3522L8.71688 16.0549C9.04134 16.2465 9.41489 16.364 9.8183 16.364C11.0216 16.364 12.0001 15.3855 12.0001 14.1822C12.0001 12.9789 11.0216 12.0004 9.8183 12.0004C8.61497 12.0004 7.63648 12.9789 7.63648 14.1822C7.63648 14.5856 7.75399 14.9591 7.94554 15.2836L1.64829 21.5809L5.32257 8.72024C9.00575 8.58759 12.0502 6.73145 13.3282 5.82425L18.1762 10.6723C17.269 11.9503 15.4129 14.9947 15.2802 18.6779ZM8.72741 14.1822C8.72741 13.5809 9.21694 13.0913 9.8183 13.0913C10.4197 13.0913 10.9092 13.5809 10.9092 14.1822C10.9092 14.7836 10.4197 15.2731 9.8183 15.2731C9.21694 15.2731 8.72741 14.7836 8.72741 14.1822ZM22.7493 8.5679L20.567 10.7502C20.3625 10.9559 20.0018 10.9564 19.7962 10.7497L13.2503 4.2038C13.1475 4.10152 13.091 3.96463 13.091 3.81869C13.091 3.67275 13.1475 3.53586 13.2508 3.43302L15.4331 1.25069C15.5354 1.14791 15.6723 1.0914 15.8182 1.0914C15.9642 1.0914 16.1011 1.14785 16.2039 1.2512L22.7493 7.79662L22.7498 7.79713C22.8526 7.8994 22.9091 8.03629 22.9091 8.18223C22.9091 8.32823 22.8527 8.46512 22.7493 8.5679Z" fill="#DD7935"/>
</g>
<defs>
<clipPath id="clip0">
<rect width="24" height="24" fill="white"/>
</clipPath>
</defs>
</svg>
