<svg width="15" height="15" viewBox="0 0 15 15" fill="none" xmlns="http://www.w3.org/2000/svg">
<path d="M14.0789 10.5909C14.0541 10.5703 11.2467 8.56125 10.485 8.69297C10.1189 8.75766 9.90938 9.00703 9.48984 9.50719C9.42234 9.58781 9.25969 9.78047 9.13406 9.91781C8.8689 9.83143 8.61027 9.72616 8.36016 9.60281C7.06899 8.97422 6.02578 7.93101 5.39719 6.63984C5.27384 6.38973 5.16857 6.1311 5.08219 5.86594C5.22 5.73984 5.41313 5.57719 5.49563 5.50781C5.99297 5.09062 6.24234 4.88109 6.30703 4.51453C6.43969 3.75562 4.42969 0.945937 4.40906 0.920625C4.31753 0.790808 4.19831 0.682933 4.06002 0.604789C3.92172 0.526645 3.76781 0.480181 3.60938 0.46875C2.79469 0.46875 0.46875 3.48563 0.46875 3.99422C0.46875 4.02375 0.511406 7.02562 4.21312 10.7911C7.97438 14.4886 10.9762 14.5312 11.0058 14.5312C11.5144 14.5312 14.5312 12.2053 14.5312 11.3906C14.5198 11.2321 14.4733 11.0782 14.3951 10.9399C14.3169 10.8016 14.2089 10.6824 14.0789 10.5909ZM10.9542 13.5909C10.5445 13.5572 8.02547 13.2248 4.87594 10.1306C1.76578 6.96422 1.44187 4.43813 1.40953 4.04672C2.02396 3.08233 2.766 2.20548 3.61547 1.44C3.63422 1.45875 3.65906 1.48688 3.69094 1.52344C4.34242 2.41276 4.90363 3.36481 5.36625 4.36547C5.21581 4.51682 5.0568 4.65939 4.89 4.7925C4.63134 4.98959 4.39382 5.21297 4.18125 5.45906L4.06734 5.61844L4.10109 5.81109C4.20029 6.24081 4.35223 6.65662 4.55344 7.04906C5.27432 8.52939 6.47051 9.72541 7.95094 10.4461C8.3433 10.6476 8.75913 10.7997 9.18891 10.8989L9.38156 10.9327L9.54094 10.8188C9.78796 10.6052 10.0123 10.3668 10.2103 10.1072C10.357 9.93188 10.5534 9.69797 10.6275 9.63188C11.631 10.094 12.5855 10.6559 13.4766 11.3091C13.5155 11.3419 13.5427 11.3672 13.5609 11.3836C12.7956 12.2333 11.9187 12.9755 10.9542 13.59V13.5909Z" fill="#F47928" fill-opacity="0.9"/>
</svg>
