<svg width="16" height="16" viewBox="0 0 16 16" fill="none" xmlns="http://www.w3.org/2000/svg">
<path d="M6.4395 12.8747C7.8696 12.8747 9.2588 12.3976 10.387 11.5188L14.6436 15.7753C14.9615 16.0824 15.4682 16.0736 15.7753 15.7556C16.0749 15.4454 16.0749 14.9537 15.7753 14.6436L11.5188 10.3871C13.6994 7.58003 13.1916 3.53677 10.3846 1.35616C7.57755 -0.824443 3.53432 -0.316655 1.35372 2.49037C-0.826884 5.2974 -0.319097 9.34066 2.48793 11.5213C3.61801 12.3992 5.00846 12.8754 6.4395 12.8747ZM3.01943 3.01941C4.9083 1.13051 7.97076 1.13047 9.85967 3.01934C11.7486 4.90821 11.7486 7.97067 9.85974 9.85958C7.97087 11.7485 4.9084 11.7485 3.0195 9.85965C3.01946 9.85962 3.01946 9.85962 3.01943 9.85958C1.13056 7.98447 1.11943 4.93317 2.99454 3.0443C3.00282 3.03598 3.01111 3.0277 3.01943 3.01941Z" fill="black"/>
</svg>
