<svg width="31" height="31" viewBox="0 0 31 31" fill="none" xmlns="http://www.w3.org/2000/svg">
<g clip-path="url(#clip0)">
<path d="M24.1571 22.6445C23.8229 22.6445 23.551 22.9164 23.551 23.25C23.551 23.5836 23.8229 23.8555 24.1571 23.8555C24.4908 23.8555 24.762 23.5836 24.762 23.25C24.762 22.9164 24.4907 22.6445 24.1571 22.6445Z" fill="#DD7935"/>
<path d="M29.4863 19.7047V18.5879C29.4863 18.123 29.3106 17.6986 29.0223 17.377C29.3106 17.0553 29.4863 16.6309 29.4863 16.166V14.927C30.334 14.6658 31 13.8546 31 12.8965C31 11.728 30.0494 10.7773 28.8809 10.7773H19.0651C17.9756 10.7773 16.9414 10.2945 16.2279 9.47123C15.6521 8.80685 14.819 8.41602 13.9403 8.41602C13.9364 8.41602 13.9324 8.41602 13.9284 8.41602C13.301 8.41602 12.6983 8.62611 12.196 8.98049L11.44 7.47391C11.3375 7.26883 11.1278 7.14453 10.8984 7.14453H4.1801C2.51003 7.14453 1.06078 8.27609 0.655723 9.89627L0.0181035 12.4469C-0.027125 12.6278 0.0135019 12.8194 0.128299 12.9664C0.242975 13.1134 0.419045 13.1992 0.605469 13.1992H9.20312V14.9651C9.20312 16.5089 7.97045 17.7809 6.4552 17.8005C4.93869 17.8203 3.63281 16.523 3.63281 15.0156C3.63281 14.6812 3.36174 14.4102 3.02734 14.4102H0.605469C0.271068 14.4102 0 14.6812 0 15.0156C0 19.5561 3.6939 23.25 8.23438 23.25C8.88604 23.25 9.52778 23.1726 10.1486 23.0243C10.4132 23.2759 10.7162 23.4754 11.0522 23.6175C11.4252 23.7749 11.8218 23.8554 12.2305 23.8554H21.4318C21.7661 23.8554 22.0379 23.5836 22.0379 23.2499C22.0379 22.9163 21.7661 22.6445 21.4318 22.6445H12.2305C11.2308 22.6427 10.4159 21.8277 10.4141 20.8281C10.4159 19.8284 11.2308 19.0135 12.2305 19.0117H12.7627C13.4293 19.0117 14.056 19.2714 14.527 19.7425C14.8727 20.0882 15.2772 20.3588 15.7295 20.5459C16.1812 20.733 16.6583 20.8281 17.1475 20.8281H28.8809C29.3804 20.8287 29.7878 21.2361 29.7891 21.7363C29.7878 22.2358 29.3804 22.6433 28.8809 22.6445H26.881C26.5474 22.6445 26.2755 22.9163 26.2755 23.2499C26.2755 23.5836 26.5474 23.8554 26.8823 23.8554H28.8809C29.447 23.8554 29.9792 23.635 30.3794 23.2348C30.7796 22.8346 31 22.3024 31 21.7363C31 21.1702 30.7795 20.638 30.3794 20.2378C30.1262 19.9846 29.8496 19.8037 29.4863 19.7047ZM1.38095 11.9883L1.68369 10.7773H7.26562C7.60003 10.7773 7.87109 10.5063 7.87109 10.1719C7.87109 9.83747 7.60003 9.56641 7.26562 9.56641H2.08251C2.50634 8.8307 3.29666 8.35547 4.1801 8.35547H10.5243L11.2961 9.89923L9.51367 11.9883H1.38095ZM15.2723 18.7821C15.0872 18.6114 14.8876 18.4598 14.6731 18.3309C14.7462 17.4814 15.1112 16.6922 15.7209 16.0816C16.4072 15.3942 17.3202 15.0156 18.2916 15.0156H18.5477C18.3056 16.8246 16.9942 18.2989 15.2723 18.7821ZM17.1475 19.6172C16.964 19.6172 16.7837 19.5968 16.6086 19.5585C18.3261 18.7004 19.5562 17.0081 19.7658 15.0156H20.6136L21.9915 17.2203L19.4947 19.6172H17.1475ZM25.8535 18.5879V19.6172H21.2433L23.185 17.7532C23.3917 17.5547 23.431 17.2385 23.2791 16.9955L22.0417 15.0156H25.8535V16.166C25.8535 16.6309 26.0292 17.0553 26.3175 17.377C26.0292 17.6986 25.8535 18.123 25.8535 18.5879ZM28.2754 19.6172H27.0645V18.5879C27.0645 18.254 27.3361 17.9824 27.6699 17.9824C28.0038 17.9824 28.2754 18.254 28.2754 18.5879V19.6172ZM28.2754 16.166C28.2754 16.4999 28.0038 16.7715 27.6699 16.7715C27.3361 16.7715 27.0645 16.4999 27.0645 16.166V15.0156H28.2754V16.166ZM18.2916 13.8047C16.9964 13.8047 15.7791 14.3094 14.864 15.226C14.135 15.956 13.6686 16.8777 13.5096 17.8771C13.2651 17.8267 13.0156 17.8008 12.7627 17.8008C12.7627 17.8008 12.2309 17.8008 12.2305 17.8008C10.5955 17.8008 9.20319 19.196 9.20319 20.8281C9.20319 21.2125 9.27475 21.5859 9.41461 21.9392C9.02784 22.005 8.63326 22.0391 8.23438 22.0391C4.5656 22.0391 1.54485 19.2114 1.23679 15.6211H2.46704C2.59474 16.4675 2.98974 17.2467 3.61077 17.8597C4.3773 18.6163 5.39121 19.0255 6.47083 19.0114C8.64513 18.9832 10.4141 17.168 10.4141 14.9651V12.7986L12.5584 10.2855C12.9022 9.88246 13.4033 9.65014 13.9332 9.64808C14.4651 9.64494 14.9659 9.87447 15.3128 10.2749C16.2565 11.3637 17.6242 11.9883 19.0651 11.9883H28.8809C29.3816 11.9883 29.7891 12.3957 29.7891 12.8965C29.7891 13.3973 29.3816 13.8047 28.8809 13.8047H18.2916Z" fill="#DD7935"/>
<path d="M12.291 21.4336C12.6254 21.4336 12.8965 21.1625 12.8965 20.8281C12.8965 20.4937 12.6254 20.2227 12.291 20.2227C11.9566 20.2227 11.6855 20.4937 11.6855 20.8281C11.6855 21.1625 11.9566 21.4336 12.291 21.4336Z" fill="#DD7935"/>
<path d="M13.1387 13.1992C13.4731 13.1992 13.7441 12.9281 13.7441 12.5938C13.7441 12.2594 13.4731 11.9883 13.1387 11.9883C12.8043 11.9883 12.5332 12.2594 12.5332 12.5938C12.5332 12.9281 12.8043 13.1992 13.1387 13.1992Z" fill="#DD7935"/>
</g>
<defs>
<clipPath id="clip0">
<rect width="31" height="31" fill="white"/>
</clipPath>
</defs>
</svg>
