<svg width="25" height="25" viewBox="0 0 25 25" fill="none" xmlns="http://www.w3.org/2000/svg">
<path d="M12.4986 2.97949C7.24895 2.97949 2.97803 7.25041 2.97803 12.5C2.97803 17.7497 7.24895 22.0206 12.4986 22.0206C17.7482 22.0206 22.0191 17.7497 22.0191 12.5C22.0191 7.25041 17.7482 2.97949 12.4986 2.97949ZM12.4986 4.44419C16.4405 4.44419 19.7298 7.29025 20.4206 11.0353C19.9608 10.9645 17.2399 11.469 15.1693 9.26252C13.9977 8.01391 12.4542 8.09647 12.4982 8.1059C11.4761 8.1059 10.5277 8.51674 9.82794 9.26247C8.77072 10.3891 7.24075 11.0353 5.6304 11.0353H4.57655C5.26735 7.29025 8.55668 4.44419 12.4986 4.44419ZM5.02861 15.515C7.86725 14.9175 10.5882 17.2969 10.2841 20.2463C7.89229 19.5616 5.95269 17.7963 5.02861 15.515ZM11.7271 20.5188C12.2241 16.4915 8.51381 13.2141 4.60443 14.1099C4.49853 13.5895 4.44273 13.0512 4.44273 12.5C4.92789 12.4229 8.31984 13.01 10.8961 10.2648C11.7619 9.34191 13.2285 9.33473 14.1012 10.2648C16.6799 13.0127 20.0577 12.421 20.5545 12.5C20.5545 13.0512 20.4987 13.5895 20.3928 14.1099C16.4754 13.2125 12.7742 16.5 13.2701 20.5188C12.7713 20.5664 12.265 20.5701 11.7271 20.5188ZM14.7131 20.2463C14.4086 17.2936 17.1333 14.9181 19.9686 15.5149C19.0445 17.7963 17.1049 19.5616 14.7131 20.2463Z" fill="#DD7935"/>
<path d="M14.6959 13.2322C14.6959 12.0208 13.7103 11.0352 12.4988 11.0352C11.2873 11.0352 10.3018 12.0208 10.3018 13.2322C10.3018 14.4437 11.2873 15.4293 12.4988 15.4293C13.7103 15.4293 14.6959 14.4437 14.6959 13.2322ZM12.4988 13.9646C12.095 13.9646 11.7665 13.6361 11.7665 13.2322C11.7665 12.8284 12.095 12.4999 12.4988 12.4999C12.9027 12.4999 13.2312 12.8284 13.2312 13.2322C13.2312 13.6361 12.9027 13.9646 12.4988 13.9646Z" fill="#DD7935"/>
<path d="M21.3266 3.6724C18.9594 1.30515 15.8243 0.00146484 12.4988 0.00146484C5.61664 0.00146484 0 5.61854 0 12.5002C0 19.3824 5.61708 24.999 12.4988 24.999C15.8243 24.999 18.9594 23.6953 21.3266 21.3281C26.2236 16.4311 26.2253 8.57109 21.3266 3.6724ZM12.4988 23.5343C6.41456 23.5343 1.4647 18.5845 1.4647 12.5002C1.4647 6.41602 6.41456 1.46617 12.4988 1.46617C18.583 1.46617 23.5329 6.41602 23.5329 12.5002C23.5329 18.5845 18.583 23.5343 12.4988 23.5343Z" fill="#DD7935"/>
</svg>
