<svg width="17" height="17" viewBox="0 0 17 17" fill="none" xmlns="http://www.w3.org/2000/svg">
<path d="M8.50017 0.708496C6.95912 0.708496 5.45268 1.16547 4.17135 2.02163C2.89002 2.87779 1.89134 4.09468 1.3016 5.51842C0.711872 6.94216 0.557571 8.50881 0.858214 10.0202C1.15886 11.5317 1.90094 12.92 2.99063 14.0097C4.08031 15.0994 5.46865 15.8415 6.98009 16.1421C8.49152 16.4428 10.0582 16.2885 11.4819 15.6987C12.9056 15.109 14.1225 14.1103 14.9787 12.829C15.8349 11.5476 16.2918 10.0412 16.2918 8.50016C16.2895 6.4344 15.4678 4.45392 14.0071 2.99321C12.5464 1.5325 10.5659 0.71084 8.50017 0.708496ZM8.50017 14.8752C7.23931 14.8752 6.00677 14.5013 4.95841 13.8008C3.91004 13.1003 3.09294 12.1046 2.61043 10.9398C2.12793 9.77489 2.00168 8.49309 2.24766 7.25646C2.49364 6.01983 3.1008 4.88392 3.99236 3.99236C4.88392 3.1008 6.01984 2.49364 7.25646 2.24766C8.49309 2.00168 9.77489 2.12792 10.9398 2.61043C12.1047 3.09294 13.1003 3.91004 13.8008 4.9584C14.5013 6.00677 14.8752 7.23931 14.8752 8.50016C14.8733 10.1903 14.201 11.8108 13.0059 13.0059C11.8108 14.201 10.1903 14.8733 8.50017 14.8752Z" fill="#F47928" fill-opacity="0.9"/>
<path d="M9.20866 8.20691V5.66683C9.20866 5.47897 9.13403 5.2988 9.00119 5.16596C8.86836 5.03312 8.68819 4.9585 8.50033 4.9585C8.31246 4.9585 8.1323 5.03312 7.99946 5.16596C7.86662 5.2988 7.79199 5.47897 7.79199 5.66683V8.50016L7.7927 8.50356C7.79393 8.69014 7.86827 8.86879 7.99975 9.00117L10.0028 11.0045C10.0682 11.072 10.1463 11.1257 10.2327 11.1626C10.319 11.1996 10.4119 11.219 10.5058 11.2197C10.5997 11.2204 10.6929 11.2024 10.7798 11.1668C10.8667 11.1312 10.9456 11.0787 11.0121 11.0123C11.0785 10.9458 11.131 10.8669 11.1666 10.78C11.2023 10.6931 11.2202 10.5999 11.2195 10.506C11.2188 10.4121 11.1994 10.3192 11.1625 10.2329C11.1256 10.1465 11.0718 10.0684 11.0044 10.003L9.20866 8.20691Z" fill="#F47928" fill-opacity="0.9"/>
</svg>
