<svg width="21" height="28" viewBox="0 0 21 28" fill="none" xmlns="http://www.w3.org/2000/svg">
<path d="M10.5009 0.873535C7.50858 0.873535 5.06162 3.39771 5.06162 6.49321C5.06162 9.58872 7.50858 12.1181 10.5009 12.1181C13.4932 12.1181 15.9402 9.58872 15.9402 6.49321C15.9402 3.39771 13.4932 0.873535 10.5009 0.873535ZM10.5009 2.74856C12.5137 2.74856 14.1259 4.41106 14.1259 6.49321C14.1259 8.57537 12.5137 10.2431 10.5009 10.2431C8.48813 10.2431 6.87412 8.57537 6.87412 6.49321C6.87412 4.41106 8.48813 2.74856 10.5009 2.74856ZM8.68839 13.9951C4.1855 13.9951 0.532135 17.7726 0.532135 22.4307V27.1237H2.34641V22.4307C2.34641 18.7789 5.15827 15.8699 8.68839 15.8699H12.3134C15.8435 15.8699 18.6554 18.7789 18.6554 22.4307V27.1237H20.4679V22.4307C20.4679 17.7726 16.8163 13.9951 12.3134 13.9951H8.68839Z" fill="#656565"/>
</svg>
