<svg width="28" height="28" viewBox="0 0 28 28" fill="none" xmlns="http://www.w3.org/2000/svg">
<path d="M27.0584 12.7137L23.3084 3.33875C23.1753 3.01062 22.8144 2.75 22.4375 2.75H16.64C16.2519 1.66156 15.2206 0.875 14 0.875C12.7794 0.875 11.7481 1.66156 11.36 2.75H5.56249C5.18281 2.75 4.81999 3.01531 4.69156 3.33875L0.941558 12.7137C0.90687 12.8019 0.878745 13.1131 0.877808 13.0972C0.898433 15.6659 2.98999 17.75 5.56249 17.75C8.13499 17.75 10.2266 15.6659 10.2462 13.0981C10.2472 13.0063 10.1956 12.7456 10.1825 12.7147L6.94718 4.625H11.36C11.6431 5.41906 12.2684 6.04437 13.0625 6.3275V21.5H9.31249C7.76187 21.5 6.49999 22.7619 6.49999 24.3125V26.1875C6.49999 26.705 6.91906 27.125 7.43749 27.125H20.5625C21.0809 27.125 21.5 26.705 21.5 26.1875V24.3125C21.5 22.7619 20.2381 21.5 18.6875 21.5H14.9375V6.3275C15.7316 6.04437 16.3569 5.41906 16.64 4.625H21.0528L17.8175 12.7137C17.7828 12.8019 17.7547 13.1131 17.7537 13.0972C17.7734 15.6659 19.865 17.75 22.4375 17.75C25.01 17.75 27.1016 15.6659 27.1212 13.0981C27.1222 13.0063 27.0706 12.7456 27.0584 12.7137ZM19.625 24.3125V25.25H8.37499V24.3125C8.37499 23.7959 8.79499 23.375 9.31249 23.375H18.6875C19.205 23.375 19.625 23.7959 19.625 24.3125ZM24.8028 12.125H20.0731L22.4375 6.21125L24.8028 12.125ZM5.56249 6.21125L7.92781 12.125H3.19718L5.56249 6.21125ZM5.56249 15.875C4.33999 15.875 3.29749 15.0913 2.91031 14H8.21468C7.8275 15.0913 6.78499 15.875 5.56249 15.875ZM14 4.625C13.4825 4.625 13.0625 4.20406 13.0625 3.6875C13.0625 3.17094 13.4825 2.75 14 2.75C14.5175 2.75 14.9375 3.17094 14.9375 3.6875C14.9375 4.20406 14.5175 4.625 14 4.625ZM22.4375 15.875C21.215 15.875 20.1725 15.0913 19.7853 14H25.0897C24.7025 15.0913 23.66 15.875 22.4375 15.875Z" fill="#656565"/>
</svg>
