<svg width="26" height="26" viewBox="0 0 26 26" fill="none" xmlns="http://www.w3.org/2000/svg">
<g clip-path="url(#clip0)">
<path d="M21.6836 0H4.35033C3.15419 0.00138855 2.18498 0.970596 2.18359 2.16673V22.9666C2.18359 23.6847 2.76559 24.2667 3.48367 24.2667V25.5666C3.48367 25.806 3.67767 26 3.9169 26H22.117C22.3562 26 22.5502 25.806 22.5502 25.5666V24.2667C23.2681 24.2667 23.8503 23.6847 23.8503 22.9666V2.16673C23.8487 0.970596 22.8797 0.00138855 21.6836 0V0ZM4.35033 0.866653H21.6836C22.4015 0.866653 22.9837 1.44865 22.9837 2.16673V5.20012H3.05025V2.16673C3.05025 1.44865 3.63225 0.866653 4.35033 0.866653ZM21.6836 25.1333H4.35033V24.2667H21.6836V25.1333ZM22.5502 23.4H3.48367C3.24425 23.4 3.05025 23.206 3.05025 22.9666V6.06657H22.9837V22.9666C22.9837 23.206 22.7897 23.4 22.5502 23.4Z" fill="#DD7935"/>
<path d="M4.35042 4.33336H9.55034C9.78976 4.33336 9.98377 4.13936 9.98377 3.90013V2.16682C9.98377 1.9274 9.78976 1.7334 9.55034 1.7334H4.35042C4.11099 1.7334 3.91699 1.9274 3.91699 2.16682V3.90013C3.91699 4.13936 4.11099 4.33336 4.35042 4.33336ZM4.78365 2.60005H9.11711V3.4667H4.78365V2.60005Z" fill="#DD7935"/>
<path d="M12.1502 4.33336C12.8683 4.33336 13.4503 3.75136 13.4503 3.03348C13.4503 2.3154 12.8683 1.7334 12.1502 1.7334C11.4323 1.7334 10.8503 2.3154 10.8503 3.03348C10.8503 3.75136 11.4323 4.33336 12.1502 4.33336ZM12.1502 2.60005C12.3896 2.60005 12.5836 2.79405 12.5836 3.03348C12.5836 3.2727 12.3896 3.4667 12.1502 3.4667C11.911 3.4667 11.717 3.2727 11.717 3.03348C11.717 2.79405 11.911 2.60005 12.1502 2.60005Z" fill="#DD7935"/>
<path d="M15.6168 4.33336C16.3349 4.33336 16.9169 3.75136 16.9169 3.03348C16.9169 2.3154 16.3349 1.7334 15.6168 1.7334C14.8989 1.7334 14.3169 2.3154 14.3169 3.03348C14.3169 3.75136 14.8989 4.33336 15.6168 4.33336ZM15.6168 2.60005C15.8562 2.60005 16.0502 2.79405 16.0502 3.03348C16.0502 3.2727 15.8562 3.4667 15.6168 3.4667C15.3775 3.4667 15.1835 3.2727 15.1835 3.03348C15.1835 2.79405 15.3775 2.60005 15.6168 2.60005Z" fill="#DD7935"/>
<path d="M18.2169 3.46675H19.0835C19.3228 3.46675 19.5168 3.27275 19.5168 3.03352C19.5168 2.7941 19.3228 2.6001 19.0835 2.6001H18.2169C17.9774 2.6001 17.7834 2.7941 17.7834 3.03352C17.7834 3.27275 17.9774 3.46675 18.2169 3.46675Z" fill="#DD7935"/>
<path d="M20.817 3.46675H21.6836C21.923 3.46675 22.1171 3.27275 22.1171 3.03352C22.1171 2.7941 21.923 2.6001 21.6836 2.6001H20.817C20.5775 2.6001 20.3835 2.7941 20.3835 3.03352C20.3835 3.27275 20.5775 3.46675 20.817 3.46675Z" fill="#DD7935"/>
<path d="M13.017 7.80029C9.18794 7.80029 6.08374 10.9043 6.08374 14.7335C6.08374 18.5627 9.18794 21.6669 13.017 21.6669C16.8462 21.6669 19.9504 18.5627 19.9504 14.7335C19.9458 10.9063 16.8444 7.80486 13.017 7.80029ZM13.017 20.8003C9.6666 20.8003 6.95039 18.0841 6.95039 14.7335C6.95039 11.3829 9.6666 8.66695 13.017 8.66695C16.3675 8.66695 19.0837 11.3829 19.0837 14.7335C19.0802 18.0825 16.3661 20.7967 13.017 20.8003Z" fill="#DD7935"/>
<path d="M13.0169 9.10014C9.90892 9.09717 7.38672 11.6142 7.38355 14.7222C7.38295 15.4587 7.52677 16.1883 7.80705 16.8695C7.80963 16.8782 7.80705 16.8871 7.81043 16.8959C7.814 16.9046 7.82213 16.9127 7.82649 16.9228C9.03334 19.7878 12.3343 21.1319 15.1993 19.9251C16.8025 19.2497 18.0032 17.871 18.4523 16.1905C18.4547 16.1833 18.4564 16.176 18.4578 16.1687C19.2626 13.1757 17.4886 10.0971 14.4955 9.29256C14.0135 9.16302 13.5162 9.09816 13.0169 9.10014ZM13.0169 9.9668C15.6432 9.96065 17.7774 12.0847 17.7836 14.7109C17.7844 15.0656 17.7457 15.419 17.6679 15.7648C17.442 15.8396 17.2202 15.9265 17.0036 16.0248C16.4415 16.3166 15.817 16.4682 15.1836 16.4668C14.6443 16.4813 14.1115 16.3462 13.6439 16.0768C13.0556 15.7493 12.3903 15.5849 11.717 15.6001C10.6163 15.645 9.52786 15.8493 8.48606 16.2067C7.66919 13.7074 9.03314 11.0191 11.5325 10.2025C12.0118 10.0457 12.5128 9.9662 13.0169 9.9668ZM13.0169 19.5002C11.2701 19.499 9.66355 18.5429 8.82923 17.0081C9.76114 16.691 10.7335 16.5087 11.717 16.4668C12.2564 16.4525 12.7892 16.5874 13.2565 16.8568C13.8451 17.1843 14.5104 17.3489 15.1836 17.3335C15.9114 17.3374 16.6301 17.1714 17.2823 16.8486C16.4791 18.4705 14.8268 19.4978 13.0169 19.5002Z" fill="#DD7935"/>
</g>
<defs>
<clipPath id="clip0">
<rect width="26" height="26" fill="white"/>
</clipPath>
</defs>
</svg>
